<?xml version="1.0" encoding="utf-8"?>
<!-- Generator: Adobe Illustrator 25.0.1, SVG Export Plug-In . SVG Version: 6.00 Build 0)  -->
<svg version="1.1" id="katman_1" xmlns="http://www.w3.org/2000/svg" xmlns:xlink="http://www.w3.org/1999/xlink" x="0px" y="0px"
	 viewBox="0 0 560 400" style="enable-background:new 0 0 560 400;" xml:space="preserve">
<style type="text/css">
	.st0{fill:#003366;}
	.st1{fill:#C20017;}
	.st2{fill:#FFFFFF;}
</style>
<g transform="matrix(.218623 0 0 .218623 145 65)">
	<path class="st0" d="M-77.76-77.76h1390.52v1127.84H-77.76V-77.76z"/>
	<path class="st1" d="M-77.76,1065.51h1390.52v247.25H-77.76V1065.51z"/>
	<g>
		<path class="st2" d="M1312.76,729.53h-2.59c-15.43-37.83-32.88-74.76-52.36-110.68h17.11c13.51,25.9,26.12,52.13,37.83,78.82
			L1312.76,729.53z M-77.76,76.72C-9.31,53.75,61.07,37.53,132.67,28.19l20.38-105.95h165.17l-37.04,96.15
			c44.47-0.11,88.84,2.48,132.97,7.77l51.46-103.92h181.5L560.64,53.52c114.73,29.72,223.95,77.46,323.48,141.53
			c19.82,12.72,39.07,26.12,57.76,39.97h-26.23c-110-77.46-233.29-134.44-363.79-167.88L446.13,231.19h-75.89v111.69L183,648.35
			h-59.9v102.12l-191.86,299.61h-6.08L407.18,40.57c-43.57-5.07-87.48-7.43-131.28-7.09l-352.3,1016.6h-1.35 M-77.76,1031.28
			L129.3,44.18C59.15,53.97-9.87,70.64-76.86,93.72h-0.9"/>
		<path class="st2" d="M493.87,488.92h101.56V394H493.87v-45.26H617.5l-6.76-95.14H390.51v348.36h103.36V488.92z M923.53,600.95
			h111.13l50.67-85.46l51.91,85.57h113.72l-109.67-180.49l98.74-166.41h-112.59l-42.45,72.28l-44.02-72.51H926.46l101.67,167.43
			L923.53,600.95z M794.27,604.78c98.29,1.35,179.14-77.01,180.82-175.31c-4.17-99.98-88.5-177.67-188.59-173.62
			c-94.24,3.94-169.68,79.38-173.62,173.62c1.58,98.41,82.64,176.88,181.05,175.31H794.27z M762.29,353.02
			c0.11-17.23,13.74-31.19,30.85-31.98c17.68,0.34,31.98,14.41,32.65,31.98v147.83c-1.24,17.56-16.44,30.74-34,29.5
			c-15.88-1.13-28.37-13.74-29.5-29.5V353.02z M517.4,862.05h105.16v-69.7H517.4v-47.4h128.13v-75.44H436.23v325.73h210.89v-78.36
			H517.4V862.05z M970.03,669.52l-40.31,186.45l-39.41-186.45h-69.58l-37.49,188.37l-39.07-188.37h-82.98l75.32,325.73h75.66
			l37.04-186.68l38.17,186.68h74.09l75.66-325.73L970.03,669.52z M1244.76,816.68c-21.62-19.93-46.39-25.22-74.2-33.1
			c-32.88-9.23-51-10.25-51-29.39c1.35-14.19,13.96-24.55,28.15-23.19h0.23c20.94-1.69,40.08,12.16,44.92,32.65L1263.9,740
			c-13.17-49.54-59.11-83.21-110.34-80.95c-74.2,0-119.57,45.6-119.57,106.96c0,53.03,30.85,79.15,92.66,97.62
			c36.93,11.15,56.52,10.25,56.52,34c0,12.5-11.6,22.29-30.85,22.29c-25.45,2.93-48.64-14.52-53.03-39.75l-77.91,17.11
			c13.29,61.81,59.34,98.52,129.93,98.52c34.9,0.9,68.57-12.95,92.66-38.17c17.79-19.59,27.59-45.15,27.36-71.72
			c1.46-25.9-8.33-51.12-26.68-69.36h0.11L1244.76,816.68z M335.12,833l-97.06-162.02h-94.13v324.49h82.64V805.87l110.79,189.16
			h78.36V670.53h-80.39L335.12,833z"/>
		<path class="st2" d="M55.89,1177.31c8.89-1.58,17.68,3.49,20.83,11.93h46.39c-2.93-21.96-27.81-35.02-66.54-35.02
			c-44.36,0.56-72.51,19.59-72.51,50.55c0,28.15,27.7,46.39,69.7,46.39c38.73,0,64.07-13.4,68.79-36.26H76.83
			c-2.59,8.78-9.91,13.17-21.73,13.17c-15.43,0-23.76-8.22-23.76-24.55C31.34,1187.22,40.01,1177.31,55.89,1177.31L55.89,1177.31z
			 M507.05,1230.46v-34.12c1.8-10.58-1.69-21.39-9.23-28.94c-15.54-9.35-33.67-13.51-51.79-11.71c-39.97,0-61.81,9.68-66.32,30.85
			h42.45c1.8-6.64,9.57-10.25,22.86-10.25c13.29,0,18.24,2.81,18.24,7.99v2.14c0,6.98-17.45,5.52-50.1,10.47
			c-24.88,3.72-37.38,12.95-37.38,27.92c0,14.97,16.33,26.01,44.02,26.01c15.76,0.45,31.41-3.83,44.81-12.16
			c0.45,3.15,1.24,6.31,2.36,9.23h46.39v-3.38c-4.05-1.58-6.19-6.31-6.19-14.41L507.05,1230.46z M463.02,1215.93
			c0,9.57-11.15,15.43-26.68,15.43c-10.36,0-17-4.5-17-10.7c0-6.19,4.84-8.22,15.43-10.02c9.57-0.9,19.03-2.59,28.26-5.07V1215.93z
			 M670.98,1155.81c-15.65-1.35-31.08,3.94-42.67,14.52v-12.05H583.5v90.07h46.39v-48.42c0-15.43,6.64-21.73,23.31-21.73
			s19.37,7.99,19.37,24.55v45.26h46.39v-58.89c-0.56-22.74-13.29-33.33-47.4-33.33H670.98z M270.15,1157.05
			c-15.65-1.13-31.19,3.94-43.24,14.07v-43.69h-46.39v122.05h46.39v-48.08c0-15.43,6.64-21.73,23.31-21.73
			c16.66,0,19.37,7.99,19.37,24.55v45.26h46.39v-61.81c0-20.04-15.88-30.63-45.38-30.63H270.15z M888.17,1155.81
			c-15.65-1.35-31.08,3.94-42.67,14.52v-12.05h-44.02v90.07h46.39v-48.42c0-15.43,6.64-21.73,23.31-21.73s19.37,7.99,19.37,24.55
			v45.26h46.39v-58.89c-0.56-22.74-13.4-33.33-47.63-33.33H888.17z M1068.32,1154.91c-42.9,0-70.71,18.35-70.71,48.53
			c0,30.17,28.37,47.63,71.83,47.63c36.03,0,61.81-11.48,69.58-30.85h-44.36c-3.27,6.53-11.15,9.91-23.64,9.91
			c-16.33,0-25.22-6.76-25.22-19.48h95.14c0.11-1.8,0.11-3.49,0-5.29c0.34-31.53-27.25-50.33-71.5-50.33L1068.32,1154.91z
			 M1043.44,1193.3c1.8-12.05,11.48-18.58,26.23-18.58c14.75,0,26.01,6.76,26.23,18.58H1043.44z M1204.56,1127.32v122.05h46.39
			v-122.05H1204.56z"/>
	</g>
</g>
</svg>
